<svg xmlns="http://www.w3.org/2000/svg" viewBox="0 0 654.86 178"><defs><style>.cls-1{fill:#d4974c;}.cls-2{fill:none;stroke:#d4974c;stroke-miterlimit:10;stroke-width:11px;}.cls-3{fill:#292219;}</style></defs><g id="Layer_2" data-name="Layer 2"><g id="Layer_1-2" data-name="Layer 1"><path class="cls-1" d="M11,11.34H152.08L152,128.25,82.24,165.44,11.09,124.87,11,11.34M0,.34.1,131.26l82,46.74L163,134.86,163.09.34Z"/><path class="cls-1" d="M145.85,11,82,150.61,17.75,11.3,145.85,11M163,0,.58.34,82.06,177,163,0Z"/><polygon class="cls-2" points="82 169.83 79.5 6.5 84.5 6.5 82 169.83"/><path class="cls-3" d="M236,156.9q-10.53,0-10.53-4.82a6.1,6.1,0,0,1,1-3.85,10,10,0,0,0,3.1.55q6,0,6.19-7.23V55.35q0-4.82-1-6.13c-1.06-1.47-2.75-2.2-5.1-2.2a14.71,14.71,0,0,0-3.06.31,3.29,3.29,0,0,1-2.06,0,2.41,2.41,0,0,1-.93-.86q-1.38-2.27,3.44-5.78,7.57-5.58,14.94-5.58,7.84,0,8.81,8.47a51,51,0,0,1,.28,5.37v92.87c.13,3.58,1.44,5.79,3.92,6.61a21.85,21.85,0,0,0,2.58.62,26.51,26.51,0,0,1,2.72.66,6.89,6.89,0,0,1,1.93.86,3.4,3.4,0,0,1,1.17,2.89,5.94,5.94,0,0,1-1.1,3.79,20,20,0,0,0-4.41-.35Z"/><path class="cls-3" d="M272.55,118.9a63,63,0,0,1,1.65-15.08,46.41,46.41,0,0,1,4.54-11.77,35.56,35.56,0,0,1,6.82-8.71,37.35,37.35,0,0,1,8.4-5.89A41.58,41.58,0,0,1,313.17,73,30.37,30.37,0,0,1,336,82.75q10.4,10.74,10.39,28.37,0,23.13-12.6,36a35.55,35.55,0,0,1-26.23,11.09q-16,0-25.61-11.22Q272.55,136.18,272.55,118.9Zm39,28.09a16,16,0,0,0,8.27-2.17,19.4,19.4,0,0,0,6.19-6q5.1-7.85,5.1-20.38,0-13.77-5.37-23.4Q319.71,84,308.35,84a17.72,17.72,0,0,0-14.67,7q-5.85,7.44-5.85,20.8,0,16.72,7.37,26.43Q301.82,147,311.58,147Z"/><path class="cls-3" d="M396.13,157.25a20,20,0,0,0-4.41-.35H371.07q-6.61,0-8.47-2.34a3.13,3.13,0,0,1-.76-2.07,6.72,6.72,0,0,1,1.11-4.26,12.13,12.13,0,0,0,3.78.55,3.46,3.46,0,0,0,3.17-1.72q1-1.73,1-6.41V55.35q0-4.76-1-6.13c-1-1.47-2.66-2.2-5.1-2.2a10.71,10.71,0,0,0-2.23.24,2.58,2.58,0,0,1-1.72-.07,2.33,2.33,0,0,1-.93-.86,2.24,2.24,0,0,1,.17-2.79,17.13,17.13,0,0,1,3.06-3,24,24,0,0,1,4.41-2.76q5.16-2.68,8.91-2.68a11.13,11.13,0,0,1,5.58,1.1,6.93,6.93,0,0,1,2.72,3q1.51,3,1.51,9.78v92.39q0,5.72,3.45,7a11.45,11.45,0,0,0,2.3.69,21.54,21.54,0,0,1,2.45.66,6,6,0,0,1,1.72.86,3.62,3.62,0,0,1,1,2.89A5.94,5.94,0,0,1,396.13,157.25ZM425.25,73Q436,73,436,79.58q0,8.34-16.73,23a97.2,97.2,0,0,1-13,9.78,67.93,67.93,0,0,1,9,10.53l7.23,10.19q9.09,13,13.7,13c2.52,0,4.19-.25,5-.76a5.12,5.12,0,0,1,1.76-.82,2.37,2.37,0,0,1,1.44.48,2,2,0,0,1,.9,1.86,7.3,7.3,0,0,1-1.07,3.27,16.29,16.29,0,0,1-13.12,8.09,15.67,15.67,0,0,1-9.15-2.58,32.78,32.78,0,0,1-7-6.68,75,75,0,0,1-6.12-9.12l-5.72-9.78q-6.94-12-11.91-15.56-2.89-2-1.93-2.55l2-1.1,11.09-7.92a70.66,70.66,0,0,0,9.77-8.33q5.24-5.85,5.23-9.77c0-1.84-1.83-2.89-5.5-3.17a4.31,4.31,0,0,1-.69-2.34,3.37,3.37,0,0,1,1.34-2.44,11.27,11.27,0,0,1,3.41-2A23.77,23.77,0,0,1,425.25,73Z"/><path class="cls-3" d="M500.5,148.16a33.1,33.1,0,0,1-24.3,10.05q-11,0-17.62-6.33t-6.68-16.6q0-12.66,11.29-19,10.19-5.77,28.71-5.78h8.6c.05-1.75.07-3.45.07-5.1v-5.16q0-9.22-2.68-13-3-4.28-10.33-4.27-16.72,0-17.21,12a20,20,0,0,0,.07,3.1c-.92.73-2.47,1.1-4.65,1.1a11,11,0,0,1-4.75-.76,8,8,0,0,1-2.58-2.07,10,10,0,0,1-2.34-6.85,11.51,11.51,0,0,1,2.44-7.29A18,18,0,0,1,465.18,77,43.12,43.12,0,0,1,484.53,73q11.16,0,16.76,2.16a23.39,23.39,0,0,1,8.92,5.75q5.85,6.35,5.85,17l-.68,33q0,9,.86,11.42a6.44,6.44,0,0,0,2.06,3.24,5.11,5.11,0,0,0,3,.83,6.38,6.38,0,0,0,2.86-.56l1.93-.89c.64-.23,1.2,0,1.68.79a3.93,3.93,0,0,1,.73,2,5.26,5.26,0,0,1-.73,2.24,9.83,9.83,0,0,1-2.68,2.92,23.19,23.19,0,0,1-4.44,2.72q-13.71,6.48-18.66-3A13.59,13.59,0,0,1,500.5,148.16Zm-.2-9q0-9.91.13-19.69-14.31.55-19.44,1.82a37.24,37.24,0,0,0-7.41,2.45,11.44,11.44,0,0,0-3.58,2.75q-2.13,2.61-2.13,7.88a10.41,10.41,0,0,0,3.72,8.4q3.72,3.13,10.67,3.13A27.74,27.74,0,0,0,500.3,139.14Z"/><path class="cls-3" d="M549.73,156.9q-10.53,0-10.53-4.82a6.1,6.1,0,0,1,1-3.85,10,10,0,0,0,3.1.55q6,0,6.19-7.23V55.35q0-4.82-1-6.13c-1.06-1.47-2.75-2.2-5.1-2.2a14.71,14.71,0,0,0-3.06.31,3.29,3.29,0,0,1-2.06,0,2.41,2.41,0,0,1-.93-.86q-1.38-2.27,3.44-5.78,7.57-5.58,14.94-5.58,7.85,0,8.81,8.47a51,51,0,0,1,.28,5.37v92.87c.13,3.58,1.44,5.79,3.92,6.61a21.85,21.85,0,0,0,2.58.62,26.51,26.51,0,0,1,2.72.66,6.89,6.89,0,0,1,1.93.86,3.4,3.4,0,0,1,1.17,2.89,5.94,5.94,0,0,1-1.1,3.79,20,20,0,0,0-4.41-.35Z"/><path class="cls-3" d="M586.91,119.86a57.63,57.63,0,0,1,1.72-14.8,48.47,48.47,0,0,1,4.65-11.6,40.32,40.32,0,0,1,6.88-9,40.76,40.76,0,0,1,8.5-6.4A35.46,35.46,0,0,1,626.29,73Q635,73,640.2,76a25.22,25.22,0,0,1,8.53,8.16q6.13,9.7,6.13,25.82,0,6-5,6.12l-48.05,1q.4,14.94,7.71,22.1,6.19,6.06,16,6.05,14.67,0,23.82-6.12c.42,0,.92.34,1.52,1a6.09,6.09,0,0,1,1.72,3.58q0,3.3-8.26,8.47a41,41,0,0,1-22.17,5.92q-16.53,0-26-10.53Q586.92,137.34,586.91,119.86Zm15.28-11.57q19.83-1,36.28-2.54.76-21.9-15.14-21.9a17.94,17.94,0,0,0-14.53,6.89Q603.64,97.07,602.19,108.29Z"/></g></g></svg>